<svg viewBox="0 0 24 24"><path d="m 3.8518519,4.2222221 c -0.5555555,0 -0.9814814,0.1666667 -1.3333333,0.5185186 C 2.1666667,5.0925925 2.0000001,5.5185185 2.0000001,6.074074 v 7.407406 c 0,0.555557 0.1666666,0.981482 0.5185185,1.333335 0.3518519,0.351851 0.7777778,0.518519 1.3333333,0.518519 h 5.5555557 c 0.5,0 0.9259264,-0.166668 1.3148144,-0.518519 0.370371,-0.351853 0.537037,-0.777778 0.537037,-1.333335 V 11.62963 H 8.4814816 v 0.925925 H 4.7777779 V 7 H 8.4814816 V 7.9259259 H 11.259259 V 6.074074 c 0,-0.5555556 -0.166666,-0.9814815 -0.537037,-1.3333333 C 10.333334,4.3888888 9.9074076,4.2222221 9.4074076,4.2222221 H 3.8518519 M 14.592593,8.6666666 c -0.499999,0 -0.925926,0.1666666 -1.314814,0.5185185 -0.370371,0.351852 -0.537038,0.7777779 -0.537038,1.3333329 v 7.407407 c 0,0.555556 0.166667,0.981482 0.537038,1.333334 0.388888,0.351852 0.814815,0.518519 1.314814,0.518519 h 5.555556 c 0.555555,0 0.981482,-0.166667 1.333334,-0.518519 C 21.833334,18.907407 22,18.481481 22,17.925925 V 16.074073 H 19.222223 V 17 H 15.51852 v -5.555556 h 3.703703 V 12.37037 H 22 V 10.518518 C 22,9.9629629 21.833334,9.5370371 21.481483,9.1851851 21.129631,8.8333332 20.703704,8.6666666 20.148149,8.6666666 Z"/></svg>
